<?xml version="1.0" encoding="iso-8859-1"?>
<!-- Generator: Adobe Illustrator 19.0.0, SVG Export Plug-In . SVG Version: 6.00 Build 0)  -->
<svg version="1.1" id="Capa_1" xmlns="http://www.w3.org/2000/svg" xmlns:xlink="http://www.w3.org/1999/xlink" x="0px" y="0px"
	 viewBox="0 0 512 512" style="enable-background:new 0 0 512 512;" xml:space="preserve">
<g>
	<g>
		<path d="M458,0H110C73.607,0,44,29.607,44,66v382c0,0.414,0.033,0.819,0.082,1.219C45.767,484.122,74.687,512,110,512h348
			c5.522,0,10-4.478,10-10V10C468,4.478,463.522,0,458,0z M64,66c0-21.931,15.429-40.326,36-44.905v359.662
			c-13.893,2.121-26.365,8.599-36,17.979V66z M448,380H237c-5.522,0-10,4.478-10,10c0,5.522,4.478,10,10,10h90.641v71.217
			c0,3.778,2.13,7.234,5.505,8.933c3.377,1.7,7.42,1.349,10.455-0.902l30.04-22.294l30.04,22.294c1.758,1.304,3.853,1.97,5.961,1.97
			c1.533,0,3.073-0.353,4.494-1.067c3.375-1.698,5.505-5.154,5.505-8.933V400H448v92H110c-25.364,0-46-20.636-46-46s20.636-46,46-46
			h46.667c5.522,0,10-4.478,10-10c0-5.522-4.478-10-10-10H120V20h328V380z M399.641,400v51.343l-20.04-14.873
			c-3.539-2.627-8.381-2.627-11.92,0l-20.04,14.873V400H399.641z"/>
	</g>
</g>
<g>
	<g>
		<path d="M205.069,382.93C203.21,381.069,200.63,380,198,380s-5.21,1.069-7.07,2.93c-1.86,1.861-2.93,4.44-2.93,7.07
			s1.069,5.21,2.93,7.069c1.86,1.86,4.44,2.931,7.07,2.931s5.21-1.07,7.069-2.931C206.93,395.21,208,392.63,208,390
			S206.93,384.79,205.069,382.93z"/>
	</g>
</g>
<g>
	<g>
		<path d="M256,419.988H113.5c-5.522,0-10,4.478-10,10c0,5.522,4.478,10,10,10H256c5.522,0,10-4.478,10-10
			C266,424.466,261.522,419.988,256,419.988z"/>
	</g>
</g>
<g>
	<g>
		<path d="M291.014,459.887H113.5c-5.522,0-10,4.478-10,10c0,5.522,4.478,10,10,10h177.514c5.522,0,10-4.478,10-10
			C301.014,464.365,296.536,459.887,291.014,459.887z"/>
	</g>
</g>
<g>
	<g>
		<path d="M298.08,422.92c-1.86-1.86-4.431-2.93-7.07-2.93c-2.63,0-5.21,1.069-7.07,2.93c-1.859,1.86-2.93,4.439-2.93,7.07
			c0,2.63,1.07,5.21,2.93,7.069c1.87,1.861,4.44,2.931,7.07,2.931c2.64,0,5.21-1.07,7.07-2.931c1.87-1.859,2.93-4.439,2.93-7.069
			C301.01,427.359,299.95,424.78,298.08,422.92z"/>
	</g>
</g>
<g>
	<g>
		<path d="M361.917,180H206.083C183.981,180,166,197.981,166,220.083v77.834C166,320.019,183.981,338,206.083,338h155.834
			C384.019,338,402,320.019,402,297.917v-77.834C402,197.981,384.019,180,361.917,180z M382,297.917
			c0,11.074-9.009,20.083-20.083,20.083H206.083C195.009,318,186,308.991,186,297.917v-77.834c0-11.074,9.009-20.083,20.083-20.083
			h155.834c11.074,0,20.083,9.009,20.083,20.083V297.917z"/>
	</g>
</g>
<g>
	<g>
		<path d="M311.688,242.945l-34.797-22.304c-5.872-3.765-13.319-4.022-19.438-0.677c-6.119,3.347-9.92,9.757-9.92,16.73v44.607
			c0,6.976,3.801,13.387,9.92,16.733c2.858,1.563,6.006,2.339,9.148,2.339c3.584,0,7.161-1.011,10.29-3.016l34.797-22.304
			c5.497-3.523,8.778-9.525,8.778-16.054C320.466,252.47,317.185,246.469,311.688,242.945z M267.533,279.6v-41.2l32.139,20.6
			L267.533,279.6z"/>
	</g>
</g>
<g>
	<g>
		<path d="M305.424,114c5.522,0,10-4.478,10-10c0-5.522-4.478-10-10-10H273V74h32.424c5.522,0,10-4.478,10-10
			c0-5.522-4.478-10-10-10H263c-5.522,0-10,4.478-10,10v80c0,5.522,4.478,10,10,10h42.424c5.522,0,10-4.478,10-10
			c0-5.522-4.478-10-10-10H273v-20H305.424z"/>
	</g>
</g>
<g>
</g>
<g>
</g>
<g>
</g>
<g>
</g>
<g>
</g>
<g>
</g>
<g>
</g>
<g>
</g>
<g>
</g>
<g>
</g>
<g>
</g>
<g>
</g>
<g>
</g>
<g>
</g>
<g>
</g>
</svg>
